<?xml version="1.0" standalone="no"?>
<!DOCTYPE svg PUBLIC "-//W3C//DTD SVG 20010904//EN"
 "http://www.w3.org/TR/2001/REC-SVG-20010904/DTD/svg10.dtd">
<svg version="1.0" xmlns="http://www.w3.org/2000/svg"
 width="3920.000000pt" height="3920.000000pt" viewBox="0 0 3920.000000 3920.000000"
 preserveAspectRatio="xMidYMid meet">
<metadata>
Created by potrace 1.14, written by Peter Selinger 2001-2017
</metadata>
<g transform="translate(0.000000,3920.000000) scale(0.100000,-0.100000)"
fill="#000000" stroke="none">
<path d="M19157 38304 c-1 -2 -77 -6 -167 -9 -309 -12 -355 -14 -405 -19 -27
-3 -104 -8 -170 -11 -66 -4 -138 -8 -160 -10 -22 -2 -76 -7 -120 -10 -44 -4
-98 -8 -120 -10 -22 -2 -71 -6 -110 -10 -38 -3 -95 -8 -125 -11 -30 -2 -71 -7
-90 -9 -19 -3 -62 -8 -95 -11 -33 -2 -78 -7 -100 -10 -88 -11 -122 -14 -165
-18 -50 -5 -114 -13 -175 -22 -22 -3 -51 -7 -65 -9 -14 -2 -43 -6 -65 -9 -22
-4 -60 -9 -85 -11 -25 -3 -90 -12 -145 -21 -55 -8 -116 -17 -135 -20 -19 -2
-44 -6 -56 -9 -12 -2 -39 -7 -60 -10 -21 -3 -64 -10 -94 -16 -82 -14 -101 -17
-140 -23 -19 -3 -44 -7 -55 -9 -11 -3 -36 -7 -55 -11 -19 -3 -46 -8 -60 -11
-14 -3 -38 -8 -55 -10 -16 -3 -64 -12 -105 -20 -41 -8 -90 -17 -108 -20 -26
-4 -295 -60 -532 -109 -20 -5 -214 -52 -295 -72 -11 -2 -31 -7 -45 -9 -55 -9
-545 -140 -754 -201 -121 -35 -228 -66 -237 -68 -60 -15 -534 -165 -639 -203
-8 -3 -94 -32 -190 -65 -96 -33 -188 -65 -205 -73 -16 -7 -95 -37 -175 -65
-122 -45 -376 -143 -470 -183 -14 -5 -29 -11 -35 -13 -9 -2 -164 -66 -240 -99
-280 -121 -492 -213 -540 -235 -245 -112 -364 -169 -610 -292 -316 -158 -405
-204 -520 -267 -44 -24 -98 -54 -120 -66 -53 -29 -276 -154 -295 -165 -8 -5
-78 -45 -155 -89 -151 -85 -451 -266 -593 -357 -48 -31 -109 -70 -137 -88
-338 -213 -1096 -743 -1305 -913 -8 -6 -72 -56 -141 -110 -69 -54 -143 -111
-164 -128 -51 -40 -159 -128 -165 -135 -3 -3 -36 -30 -75 -60 -72 -57 -469
-395 -540 -460 -63 -59 -98 -90 -176 -160 -70 -62 -114 -103 -308 -285 -214
-201 -658 -652 -880 -895 -68 -74 -143 -155 -166 -180 -23 -25 -88 -99 -145
-165 -57 -66 -118 -136 -136 -155 -18 -19 -83 -96 -144 -170 -61 -74 -130
-157 -153 -184 -23 -28 -57 -70 -76 -95 -19 -25 -37 -48 -41 -51 -3 -3 -55
-68 -116 -145 -98 -125 -136 -174 -196 -256 -21 -29 -134 -180 -146 -194 -11
-14 -163 -224 -184 -255 -10 -14 -31 -43 -47 -65 -68 -91 -461 -682 -461 -693
0 -7 -4 -12 -10 -12 -5 0 -10 -5 -10 -11 0 -6 -11 -25 -24 -42 -31 -41 -248
-396 -338 -552 -38 -66 -73 -127 -78 -135 -43 -70 -100 -174 -100 -181 0 -5
-4 -9 -10 -9 -5 0 -10 -4 -10 -9 0 -11 -155 -298 -171 -318 -6 -7 -8 -13 -4
-13 4 0 3 -6 -3 -12 -21 -27 -277 -529 -350 -688 -16 -36 -57 -123 -91 -193
-34 -71 -61 -131 -61 -133 0 -5 -38 -90 -85 -189 -27 -58 -176 -405 -179 -420
-2 -5 -13 -32 -24 -58 -12 -27 -22 -51 -22 -53 0 -3 -31 -83 -69 -177 -58
-145 -238 -630 -246 -662 -1 -5 -5 -17 -8 -25 -29 -71 -205 -623 -213 -668 -3
-14 -7 -29 -10 -33 -7 -11 -65 -201 -69 -224 -2 -11 -26 -99 -54 -197 -49
-170 -183 -706 -216 -863 -2 -11 -13 -63 -25 -115 -19 -87 -63 -310 -74 -370
-2 -14 -7 -36 -10 -50 -3 -14 -8 -36 -10 -50 -2 -14 -9 -46 -15 -73 -6 -26
-13 -63 -16 -82 -3 -29 -10 -66 -29 -170 -3 -18 -13 -85 -22 -140 -1 -11 -14
-94 -27 -185 -14 -91 -28 -183 -31 -205 -3 -22 -10 -73 -16 -113 -5 -40 -12
-94 -15 -120 -3 -26 -8 -63 -11 -82 -2 -19 -7 -53 -9 -75 -2 -22 -6 -60 -9
-85 -11 -90 -16 -136 -21 -190 -3 -30 -7 -77 -10 -105 -2 -27 -7 -75 -10 -105
-2 -30 -7 -77 -10 -105 -2 -27 -7 -86 -10 -130 -3 -44 -8 -109 -10 -145 -10
-139 -17 -258 -20 -325 -2 -38 -6 -146 -11 -240 -10 -213 -10 -1182 0 -1410 9
-220 15 -325 21 -405 3 -36 7 -108 11 -160 10 -177 19 -292 29 -375 2 -22 7
-69 10 -105 10 -123 15 -175 21 -220 10 -79 13 -104 19 -164 4 -32 8 -68 10
-80 2 -11 6 -50 10 -86 4 -36 9 -74 11 -85 2 -11 6 -40 9 -65 3 -25 7 -56 9
-70 2 -14 7 -46 10 -71 4 -25 9 -57 11 -70 2 -13 6 -44 9 -69 3 -25 8 -56 11
-70 3 -14 7 -45 10 -70 3 -25 8 -52 10 -60 3 -8 7 -31 9 -50 4 -29 33 -196 52
-305 3 -16 7 -41 8 -55 2 -14 6 -35 10 -47 4 -11 9 -36 12 -54 14 -90 59 -309
114 -549 28 -124 53 -234 55 -245 18 -80 110 -443 127 -499 11 -38 21 -76 23
-85 14 -61 163 -570 171 -583 3 -4 7 -19 10 -33 2 -13 25 -86 50 -162 347
-1040 629 -1724 1081 -2623 147 -294 178 -353 293 -560 28 -52 67 -122 85
-155 18 -33 63 -112 100 -175 37 -63 79 -135 93 -160 14 -25 61 -103 104 -175
44 -71 83 -137 88 -145 67 -114 395 -618 422 -650 10 -11 18 -22 18 -24 0 -5
173 -259 202 -296 11 -14 68 -92 127 -175 58 -82 151 -208 206 -280 54 -71
121 -159 148 -195 27 -36 63 -81 78 -100 16 -19 76 -93 132 -165 89 -112 262
-324 345 -420 52 -61 157 -180 172 -196 8 -9 35 -40 60 -70 46 -54 121 -138
175 -195 17 -18 64 -69 105 -115 182 -201 667 -691 910 -919 67 -63 136 -129
154 -145 17 -17 74 -68 126 -115 92 -82 177 -159 209 -190 9 -8 39 -33 66 -55
28 -22 55 -45 60 -51 6 -6 75 -66 155 -133 80 -68 154 -130 165 -140 11 -9 43
-35 70 -56 28 -22 52 -42 55 -45 47 -47 647 -512 715 -554 16 -10 32 -22 35
-25 7 -10 117 -91 170 -126 25 -17 47 -33 50 -36 28 -33 933 -635 1098 -730
15 -9 117 -70 227 -136 110 -66 225 -133 255 -150 30 -17 98 -55 150 -85 405
-234 997 -536 1535 -780 355 -161 1116 -476 1215 -503 14 -3 34 -10 45 -15 61
-28 459 -166 461 -159 0 2 7 -1 15 -7 8 -6 109 -41 224 -79 116 -37 226 -73
245 -81 19 -8 44 -15 55 -17 11 -2 63 -17 115 -34 90 -30 184 -58 226 -68 11
-3 60 -17 109 -31 269 -78 957 -251 1190 -299 44 -10 87 -19 95 -20 8 -2 60
-13 115 -25 55 -11 116 -25 135 -30 19 -5 53 -11 75 -15 23 -3 52 -8 65 -11
14 -3 34 -7 46 -9 11 -1 70 -12 130 -24 60 -11 123 -23 139 -26 17 -2 41 -7
55 -10 14 -3 40 -7 57 -10 31 -4 56 -8 128 -20 17 -3 46 -8 65 -11 19 -3 46
-7 60 -10 14 -2 57 -9 95 -14 39 -6 77 -12 85 -15 8 -2 40 -7 70 -10 64 -7
113 -13 155 -19 17 -3 53 -8 80 -11 28 -4 61 -8 75 -11 14 -2 45 -6 70 -9 25
-3 61 -7 80 -10 19 -2 67 -8 105 -11 39 -4 77 -8 85 -9 80 -10 202 -23 291
-30 35 -3 89 -8 119 -11 30 -3 73 -8 95 -9 22 -2 72 -6 110 -10 94 -8 149 -12
445 -30 356 -21 615 -28 1145 -28 534 0 889 8 1180 28 44 3 123 8 175 10 52 3
113 7 135 10 22 2 78 7 125 10 47 4 101 8 120 10 19 2 71 6 115 10 44 3 96 8
115 10 19 3 62 7 95 10 33 3 76 7 95 10 19 2 64 7 100 10 36 3 74 8 85 10 11
2 52 7 90 10 39 4 81 8 95 11 14 2 43 6 65 9 22 3 74 10 115 16 41 5 91 12
110 14 19 2 49 6 65 9 17 3 50 8 75 11 25 3 68 10 95 15 28 5 68 12 90 15 23
3 50 7 61 9 11 2 47 8 79 12 33 4 62 8 65 9 17 4 97 18 110 20 8 1 26 5 40 8
29 7 196 38 225 42 46 7 106 18 195 37 52 10 106 22 120 24 14 3 77 17 140 30
63 14 129 28 145 31 17 2 120 26 230 53 110 26 214 51 230 54 17 4 39 8 50 11
29 6 389 102 455 120 30 9 66 18 80 21 14 2 32 7 40 11 8 3 24 8 35 10 11 2
27 6 35 10 21 9 20 9 65 18 22 4 52 14 68 22 15 7 27 12 27 9 0 -2 28 5 63 15
34 11 73 22 86 25 13 3 49 14 80 25 31 11 65 22 75 24 19 4 167 51 196 62 8 3
20 7 26 8 13 3 193 63 214 72 8 3 20 7 25 8 61 15 747 264 763 277 6 6 12 7
12 4 0 -4 10 -1 23 6 12 7 24 13 27 14 11 2 47 16 95 36 28 11 67 25 88 31 20
6 37 15 37 19 0 4 7 8 14 8 14 0 417 168 540 224 28 13 143 65 256 116 113 51
223 101 245 113 22 11 41 20 42 19 4 -1 599 297 693 348 52 28 131 71 175 94
123 66 191 104 305 169 58 32 129 72 159 89 176 96 955 576 971 598 3 4 10 9
16 11 15 6 538 363 679 465 36 25 330 244 345 257 9 6 42 32 75 56 33 25 62
48 65 51 3 4 21 17 40 31 47 32 342 267 515 410 78 64 173 145 186 158 9 9 38
34 65 56 26 22 55 47 64 55 9 8 36 31 60 51 25 20 59 49 76 65 30 28 53 49
219 198 43 39 98 89 121 111 23 22 102 97 176 167 305 289 697 690 964 984 40
44 82 91 95 105 13 14 47 52 76 85 28 32 63 73 78 89 14 17 47 55 73 85 26 30
52 60 58 65 6 6 44 51 85 100 40 50 76 92 79 95 3 3 21 25 40 50 19 24 46 56
59 70 13 14 35 41 50 60 14 19 48 62 74 95 27 33 54 67 60 75 7 8 44 56 83
105 39 50 123 160 187 245 64 85 121 160 126 166 5 7 52 72 105 145 52 74 115
161 139 194 78 107 287 416 287 425 0 5 4 10 8 12 9 4 278 422 378 588 140
233 353 600 409 705 26 50 54 99 61 110 45 70 404 785 404 804 0 6 5 11 10 11
6 0 10 5 10 10 0 6 20 52 44 103 24 50 55 117 69 147 14 30 57 127 97 214 39
87 80 182 91 210 11 28 26 65 33 81 75 165 239 580 348 880 70 194 175 492
182 520 1 6 18 60 38 120 65 200 179 579 193 641 2 10 18 66 35 124 35 119
175 678 184 735 4 21 9 41 12 46 2 5 7 21 9 36 2 16 12 66 23 113 11 47 37
166 56 265 20 99 38 191 41 205 3 14 17 90 31 170 13 80 27 156 29 170 13 70
37 208 40 230 2 14 6 39 9 55 3 17 8 54 11 83 3 30 12 93 20 140 8 48 17 107
20 132 3 25 7 59 9 75 2 17 7 55 10 85 4 30 8 71 11 90 12 94 15 120 20 179 4
36 8 67 10 70 1 3 6 53 10 111 4 58 9 114 11 125 2 11 6 49 9 85 3 36 7 88 10
115 5 60 13 160 20 273 3 45 7 117 10 160 20 294 28 616 28 1067 0 473 -7 776
-27 1080 -3 39 -7 111 -11 160 -3 50 -7 115 -10 145 -2 30 -7 97 -10 149 -4
51 -8 101 -10 111 -2 9 -6 53 -10 96 -3 43 -8 93 -10 109 -2 17 -7 62 -10 100
-3 39 -8 82 -11 96 -3 15 -7 50 -9 79 -2 28 -8 84 -14 123 -5 40 -13 97 -16
127 -6 62 -11 92 -19 135 -3 17 -8 53 -11 80 -3 28 -8 64 -12 80 -3 17 -7 37
-8 45 -10 85 -18 149 -21 165 -6 27 -44 245 -48 270 -2 11 -6 34 -9 50 -4 17
-9 45 -12 63 -12 74 -18 106 -56 302 -21 113 -44 223 -49 245 -6 22 -31 132
-56 245 -56 252 -138 582 -199 795 -25 88 -48 169 -50 180 -6 25 -32 114 -53
180 -9 28 -17 55 -18 60 -3 21 -78 257 -146 465 -149 454 -411 1140 -573 1505
-7 17 -52 118 -100 225 -210 472 -527 1102 -741 1473 -19 32 -34 62 -34 68 0
5 -4 9 -10 9 -5 0 -10 6 -10 13 0 6 -18 40 -40 75 -22 34 -40 65 -40 67 0 2
-14 28 -31 57 -18 29 -39 67 -49 83 -40 70 -244 401 -330 535 -192 300 -566
849 -600 880 -3 3 -21 28 -40 55 -19 28 -40 56 -47 63 -7 7 -13 17 -13 22 0 5
-6 15 -13 22 -7 7 -69 87 -137 178 -68 91 -130 173 -139 182 -27 28 -41 47
-41 53 0 3 -7 13 -16 23 -28 30 -64 76 -112 137 -48 62 -415 505 -448 540 -11
11 -50 56 -89 100 -90 104 -100 115 -125 145 -12 14 -45 50 -73 80 -29 31 -79
85 -111 120 -231 253 -645 675 -877 894 -52 49 -121 114 -154 145 -33 31 -87
81 -121 111 -33 30 -102 93 -154 140 -111 101 -77 71 -354 309 -124 106 -242
205 -261 220 -19 14 -110 87 -202 161 -236 190 -251 202 -508 394 -466 349
-973 694 -1450 986 -247 151 -315 191 -440 262 -77 43 -147 83 -155 88 -219
135 -1204 639 -1505 770 -66 29 -149 66 -185 83 -81 37 -574 245 -655 276 -33
13 -75 30 -92 38 -18 7 -63 25 -100 39 -38 13 -77 29 -88 34 -11 5 -72 28
-135 50 -63 23 -124 45 -135 50 -46 22 -574 206 -615 215 -8 2 -42 13 -75 25
-60 21 -477 149 -505 155 -8 2 -67 19 -130 38 -127 39 -227 67 -250 72 -8 2
-76 20 -150 40 -74 20 -144 38 -155 40 -11 3 -81 20 -155 39 -74 19 -136 35
-137 36 -2 0 -4 0 -5 1 -2 0 -14 3 -28 5 -13 3 -72 16 -130 30 -116 28 -274
64 -305 68 -11 2 -31 6 -45 10 -14 3 -36 8 -50 10 -14 3 -81 17 -150 31 -118
24 -141 29 -207 39 -16 3 -39 7 -53 10 -33 8 -140 28 -165 31 -11 2 -72 13
-135 24 -63 11 -133 23 -155 26 -23 3 -52 8 -65 10 -14 3 -43 7 -65 10 -22 3
-51 8 -65 11 -39 8 -130 22 -185 29 -27 3 -63 7 -80 10 -16 2 -82 11 -145 19
-63 9 -131 18 -151 21 -20 3 -56 8 -80 10 -105 12 -137 15 -194 21 -33 3 -73
7 -90 9 -174 19 -240 25 -305 30 -30 2 -84 7 -120 10 -132 13 -249 22 -400 31
-58 3 -127 8 -155 10 -27 2 -115 6 -195 9 -80 3 -176 8 -215 11 -76 6 -1312
13 -1318 8z"/>
</g>
</svg>
